<svg xmlns="http://www.w3.org/2000/svg" width="720" height="360" viewBox="0 0 720 360">
<rect width="100%" height="100%" fill="#fff"/>
<text x="360.0" y="28" text-anchor="middle" font-family="sans-serif" font-size="16">Human vs system positive rate</text>
<text x="18" y="168.0" text-anchor="middle" font-family="sans-serif" font-size="11" transform="rotate(-90 18 168.0)">Rate (0-1)</text>
<line x1="64" y1="48" x2="64" y2="288" stroke="#333"/>
<line x1="64" y1="288" x2="696" y2="288" stroke="#333"/>
<line x1="64" y1="288.0" x2="696" y2="288.0" stroke="#ddd"/>
<text x="56" y="292.0" text-anchor="end" font-family="sans-serif" font-size="11">0.00</text>
<line x1="64" y1="228.0" x2="696" y2="228.0" stroke="#ddd"/>
<text x="56" y="232.0" text-anchor="end" font-family="sans-serif" font-size="11">0.25</text>
<line x1="64" y1="168.0" x2="696" y2="168.0" stroke="#ddd"/>
<text x="56" y="172.0" text-anchor="end" font-family="sans-serif" font-size="11">0.50</text>
<line x1="64" y1="108.0" x2="696" y2="108.0" stroke="#ddd"/>
<text x="56" y="112.0" text-anchor="end" font-family="sans-serif" font-size="11">0.75</text>
<line x1="64" y1="48.0" x2="696" y2="48.0" stroke="#ddd"/>
<text x="56" y="52.0" text-anchor="end" font-family="sans-serif" font-size="11">1.00</text>
<text x="222.0" y="308" text-anchor="middle" font-family="sans-serif" font-size="11">Correctness</text>
<rect x="70.3" y="259.8" width="101.1" height="28.2" fill="#4c6ef5"><title>Human positive rate Correctness: 0.118</title></rect>
<rect x="171.4" y="269.2" width="101.1" height="18.8" fill="#e8590c"><title>System positive rate Correctness: 0.078</title></rect>
<rect x="272.6" y="85.6" width="101.1" height="202.4" fill="#2f9e44"><title>Agreement Correctness: 0.843</title></rect>
<text x="538.0" y="308" text-anchor="middle" font-family="sans-serif" font-size="11">Groundness</text>
<rect x="386.3" y="261.9" width="101.1" height="26.1" fill="#4c6ef5"><title>Human positive rate Groundness: 0.109</title></rect>
<rect x="487.4" y="266.6" width="101.1" height="21.4" fill="#e8590c"><title>System positive rate Groundness: 0.089</title></rect>
<rect x="588.6" y="86.0" width="101.1" height="202.0" fill="#2f9e44"><title>Agreement Groundness: 0.842</title></rect>
<rect x="64" y="328" width="12" height="12" fill="#4c6ef5"/>
<text x="82" y="338" font-family="sans-serif" font-size="12">Human positive rate</text>
<rect x="204" y="328" width="12" height="12" fill="#e8590c"/>
<text x="222" y="338" font-family="sans-serif" font-size="12">System positive rate</text>
<rect x="344" y="328" width="12" height="12" fill="#2f9e44"/>
<text x="362" y="338" font-family="sans-serif" font-size="12">Agreement</text>
</svg>